<svg t="1757810759392" class="icon" viewBox="0 0 1024 1024" version="1.1" xmlns="http://www.w3.org/2000/svg" p-id="1438" width="200" height="200"><path d="M570.904976 271.235122H99.365463c-24.888195 0-45.056-20.167805-45.056-45.056s20.167805-45.056 45.056-45.056h471.539513c24.888195 0 45.056 20.167805 45.056 45.056s-20.167805 45.056-45.056 45.056z" fill="#020202" p-id="1439"></path><path d="M575.612878 359.661268c-24.888195 0-45.056-20.167805-45.056-45.056V137.752976c0-24.888195 20.167805-45.056 45.056-45.056s45.056 20.167805 45.056 45.056v176.852292c0.012488 24.875707-20.167805 45.056-45.056 45.056zM924.634537 271.235122H747.819707c-24.888195 0-45.056-20.167805-45.056-45.056s20.167805-45.056 45.056-45.056h176.81483c24.888195 0 45.056 20.167805 45.056 45.056s-20.167805 45.056-45.056 45.056zM296.485463 557.056H119.658146c-24.888195 0-45.056-20.167805-45.056-45.056s20.167805-45.056 45.056-45.056h176.81483c24.888195 0 45.056 20.167805 45.056 45.056s-20.155317 45.056-45.043513 45.056zM453.095024 645.482146c-24.888195 0-45.056-20.167805-45.056-45.056V423.573854c0-24.888195 20.167805-45.056 45.056-45.056s45.056 20.167805 45.056 45.056v176.852292c0.012488 24.888195-20.167805 45.056-45.056 45.056z" fill="#020202" p-id="1440"></path><path d="M924.634537 557.056h-471.539513c-24.888195 0-45.056-20.167805-45.056-45.056s20.167805-45.056 45.056-45.056h471.539513c24.888195 0 45.056 20.167805 45.056 45.056s-20.167805 45.056-45.056 45.056zM571.466927 842.951805H99.927415c-24.888195 0-45.056-20.167805-45.056-45.056s20.167805-45.056 45.056-45.056h471.539512c24.888195 0 45.056 20.167805 45.056 45.056s-20.167805 45.056-45.056 45.056z" fill="#020202" p-id="1441"></path><path d="M575.612878 931.315512c-24.888195 0-45.056-20.167805-45.056-45.056V709.469659c0-24.888195 20.167805-45.056 45.056-45.056s45.056 20.167805 45.056 45.056V886.259512c0.012488 24.875707-20.167805 45.056-45.056 45.056zM924.634537 842.951805H747.819707c-24.888195 0-45.056-20.167805-45.056-45.056s20.167805-45.056 45.056-45.056h176.81483c24.888195 0 45.056 20.167805 45.056 45.056s-20.167805 45.056-45.056 45.056z" fill="#020202" p-id="1442"></path></svg>