<svg height="512" viewBox="0 0 32 32" width="512" xmlns="http://www.w3.org/2000/svg"><g id="_x30_7"><path d="m6.15625 23.84375-3.7420654 3.7420654c-.5522461.5522461-.5522461 1.4476929 0 1.999939h.000061c.5522461.5523071 1.4476929.5523071 1.999939 0l3.7420654-3.7420044c-.7945557-.5244141-1.4755859-1.2054443-2-2z"/><path d="m12 24c2.2055664 0 4-1.7944336 4-4s-1.7944336-4-4-4c-2.2060547 0-4 1.7944336-4 4s1.7939453 4 4 4z"/><path d="m12 26c3.3084717 0 6-2.6915283 6-6s-2.6915283-6-6-6c-3.3080444 0-6 2.6915283-6 6s2.6919556 6 6 6zm0-11c2.7568359 0 5 2.2431641 5 5s-2.2431641 5-5 5-5-2.2431641-5-5 2.2431641-5 5-5z"/><path d="m27 2h-14c-1.6542969 0-3 1.3457031-3 3v3h20v-3c0-1.6542969-1.3457031-3-3-3zm-6 3.5c0 .2763672-.2236328.5-.5.5s-.5-.2236328-.5-.5v-1c0-.2763672.2236328-.5.5-.5s.5.2236328.5.5zm2 0c0 .2763672-.2236328.5-.5.5s-.5-.2236328-.5-.5v-1c0-.2763672.2236328-.5.5-.5s.5.2236328.5.5zm2 0c0 .2763672-.2236328.5-.5.5s-.5-.2236328-.5-.5v-1c0-.2763672.2236328-.5.5-.5s.5.2236328.5.5zm2 0c0 .2763672-.2236328.5-.5.5s-.5-.2236328-.5-.5v-1c0-.2763672.2236328-.5.5-.5s.5.2236328.5.5z"/><path d="m12 27c-.6589966 0-1.2943726-.0978394-1.899353-.2688599.3286133 1.3000489 1.4985962 2.2688599 2.899353 2.2688599h14c1.6542969 0 3-1.3457031 3-3v-3h-11.6849976c-1.1262817 2.3607788-3.529663 4-6.3150024 4zm14-1.5c0-.2763672.2236328-.5.5-.5s.5.2236328.5.5v1c0 .2763672-.2236328.5-.5.5s-.5-.2236328-.5-.5zm-2 0c0-.2763672.2236328-.5.5-.5s.5.2236328.5.5v1c0 .2763672-.2236328.5-.5.5s-.5-.2236328-.5-.5zm-2 0c0-.2763672.2236328-.5.5-.5s.5.2236328.5.5v1c0 .2763672-.2236328.5-.5.5s-.5-.2236328-.5-.5zm-2 0c0-.2763672.2236328-.5.5-.5s.5.2236328.5.5v1c0 .2763672-.2236328.5-.5.5s-.5-.2236328-.5-.5z"/><path d="m19 20c0 .6951904-.1052246 1.3656616-.2947998 2h11.2947998v-6h-12.2636108c.7939453 1.1350708 1.2636108 2.5127563 1.2636108 4zm7-1.5c0-.2763672.2236328-.5.5-.5s.5.2236328.5.5v1c0 .2763672-.2236328.5-.5.5s-.5-.2236328-.5-.5zm-2 0c0-.2763672.2236328-.5.5-.5s.5.2236328.5.5v1c0 .2763672-.2236328.5-.5.5s-.5-.2236328-.5-.5zm-2 0c0-.2763672.2236328-.5.5-.5s.5.2236328.5.5v1c0 .2763672-.2236328.5-.5.5s-.5-.2236328-.5-.5zm-2 0c0-.2763672.2236328-.5.5-.5s.5.2236328.5.5v1c0 .2763672-.2236328.5-.5.5s-.5-.2236328-.5-.5z"/><path d="m10 13.2947998c.6343384-.1895752 1.3048096-.2947998 2-.2947998 1.9019165 0 3.6268311.7647705 4.8896484 2h13.1103516v-6h-20zm16-1.7947998c0-.2763672.2236328-.5.5-.5s.5.2236328.5.5v1c0 .2763672-.2236328.5-.5.5s-.5-.2236328-.5-.5zm-2 0c0-.2763672.2236328-.5.5-.5s.5.2236328.5.5v1c0 .2763672-.2236328.5-.5.5s-.5-.2236328-.5-.5zm-2 0c0-.2763672.2236328-.5.5-.5s.5.2236328.5.5v1c0 .2763672-.2236328.5-.5.5s-.5-.2236328-.5-.5zm-2 0c0-.2763672.2236328-.5.5-.5s.5.2236328.5.5v1c0 .2763672-.2236328.5-.5.5s-.5-.2236328-.5-.5z"/></g></svg>