<svg t="1757810653267" class="icon" viewBox="0 0 1024 1024" version="1.1" xmlns="http://www.w3.org/2000/svg" p-id="1287" width="200" height="200"><path d="M612.027317 477.021659c-11.239024 0-22.540488-4.295805-31.144585-12.899903-17.195707-17.195707-17.195707-45.093463 0-62.289171l252.965463-252.965463c17.195707-17.195707 45.093463-17.195707 62.289171 0s17.195707 45.093463 0 62.289171L643.171902 464.121756a44.007024 44.007024 0 0 1-31.144585 12.899903z" fill="#020202" p-id="1288"></path><path d="M864.980293 419.21561c-24.326244 0-44.044488-19.718244-44.044488-44.044488V224.056195H669.883317c-24.326244 0-44.044488-19.718244-44.044488-44.044488s19.718244-44.044488 44.044488-44.044487h195.096976c24.326244 0 44.044488 19.718244 44.044487 44.044487v195.159415c0 24.326244-19.718244 44.044488-44.044487 44.044488zM178.837854 894.114341c-11.239024 0-22.540488-4.295805-31.144586-12.899902-17.195707-17.195707-17.195707-45.093463 0-62.289171l252.903025-252.965463c17.195707-17.195707 45.093463-17.195707 62.28917 0 17.195707 17.195707 17.195707 45.093463 0 62.289171L209.982439 881.214439a44.007024 44.007024 0 0 1-31.144585 12.899902z" fill="#020202" p-id="1289"></path><path d="M373.87239 897.486049H178.837854c-24.326244 0-44.044488-19.718244-44.044488-44.044488V658.357073c0-24.326244 19.718244-44.044488 44.044488-44.044488s44.044488 19.718244 44.044487 44.044488v151.052488h150.990049c24.326244 0 44.044488 19.718244 44.044488 44.044488s-19.718244 44.032-44.044488 44.032zM178.837854 406.065951c-24.326244 0-44.044488-19.718244-44.044488-44.044488V170.558439c0-24.326244 19.718244-44.044488 44.044488-44.044488h191.900097c24.326244 0 44.044488 19.718244 44.044488 44.044488s-19.718244 44.044488-44.044488 44.044488h-147.85561V362.021463c0 24.326244-19.718244 44.044488-44.044487 44.044488zM864.980293 897.486049H669.58361c-24.326244 0-44.044488-19.718244-44.044488-44.044488s19.718244-44.044488 44.044488-44.044488h151.352195V661.978537c0-24.326244 19.718244-44.044488 44.044488-44.044488s44.044488 19.718244 44.044487 44.044488v191.475512c0 24.313756-19.718244 44.032-44.044487 44.032z" fill="#020202" p-id="1290"></path></svg>